<svg width="72" height="72" viewBox="0 0 72 72" fill="none" xmlns="http://www.w3.org/2000/svg">
<circle opacity="0.1" cx="36" cy="36" r="36" fill="white"/>
<path d="M19 24.5727C19.223 23.8286 19.6294 23.2682 20.3912 23.0556C20.5816 23.0024 20.7744 23 20.9672 23C31.321 23 41.6749 23 52.0287 23C53.2272 23 53.9983 23.7972 53.9983 25.0414C54.0006 31.3565 54.0006 37.6715 53.9983 43.9866C53.9983 45.2477 53.2272 46.0473 52.0125 46.0473C48.2082 46.0497 44.4039 46.0473 40.5996 46.0473C40.0747 46.0473 40.0584 46.0497 40.1234 46.5764C40.3418 48.3448 40.8574 49.99 42.007 51.3646C42.1928 51.5845 42.3577 51.8236 42.4947 52C38.5395 52 34.4727 52 30.399 52C30.3944 51.8768 30.5035 51.855 30.5639 51.7995C31.6462 50.8041 32.2222 49.5044 32.6008 48.0911C32.754 47.521 32.84 46.9364 32.9097 46.3469C32.9422 46.0715 32.8562 46.0377 32.6263 46.0377C30.5082 46.0449 28.39 46.0425 26.2695 46.0425C24.6066 46.0425 22.9437 46.0425 21.2807 46.0425C19.9406 46.0425 19.5017 45.7405 19.0023 44.4746C19 37.8455 19 31.2091 19 24.5727ZM36.5351 25.4279C31.6044 25.4279 26.6713 25.4328 21.7406 25.4207C21.4061 25.4207 21.3318 25.5101 21.3318 25.8507C21.3434 31.6319 21.3434 37.413 21.3318 43.1942C21.3318 43.53 21.4038 43.629 21.7406 43.629C31.5812 43.6194 41.4217 43.6194 51.2623 43.629C51.5968 43.629 51.6711 43.5348 51.6711 43.1966C51.6618 37.4154 51.6618 31.6343 51.6711 25.8531C51.6711 25.5149 51.5968 25.4207 51.2623 25.4231C46.3525 25.4328 41.4426 25.4279 36.5351 25.4279Z" fill="white"/>
</svg>
