<svg width="72" height="72" viewBox="0 0 72 72" fill="none" xmlns="http://www.w3.org/2000/svg">
<circle opacity="0.1" cx="36" cy="36" r="36" fill="white"/>
<path d="M53.4236 47.8793C53.4236 48.888 53.4236 49.8968 53.4236 50.908C53.2835 51.127 53.1065 51.3091 52.8854 51.4469C41.7722 51.4469 30.6614 51.4469 19.5482 51.4469C19.1231 51.2057 18.9781 50.8441 19.0026 50.3594C19.0346 49.6778 19.0051 48.9914 19.0125 48.3074C19.0321 46.6958 20.2093 45.3746 21.8018 45.2122C22.1213 45.1802 22.1459 45.0621 22.1459 44.8038C22.1385 42.4147 22.141 40.0281 22.141 37.6391C22.141 35.5773 22.1336 33.513 22.1483 31.4512C22.1508 31.1486 22.0648 31.0698 21.7723 31.0797C21.1456 31.1018 20.519 31.0944 19.8923 31.0846C19.2951 31.0747 19.0149 30.782 19.0125 30.1816C19.01 29.2393 19.0247 28.297 19.0075 27.3571C19.0002 26.9142 19.1747 26.6313 19.5556 26.4049C24.542 23.45 29.5235 20.4876 34.5026 17.5179C35.6503 16.8339 36.7734 16.8241 37.9236 17.5081C42.883 20.463 47.8473 23.4131 52.8141 26.3582C53.0697 26.5107 53.2859 26.6878 53.426 26.9511C53.426 28.1395 53.426 29.3279 53.426 30.5187C53.2196 30.9591 52.8681 31.1116 52.3938 31.092C51.8016 31.0698 51.2068 31.0969 50.6145 31.0821C50.3639 31.0747 50.2901 31.151 50.2926 31.4044C50.3049 32.5805 50.2975 33.759 50.2975 34.9376C50.2975 38.2345 50.3 41.5314 50.2926 44.8284C50.2926 45.0843 50.3295 45.1876 50.6244 45.2122C51.3616 45.2713 51.9932 45.5936 52.5216 46.1201C53.0107 46.6072 53.2614 47.2199 53.4236 47.8793ZM36.1787 29.5198C41.2413 29.5198 46.3039 29.5198 51.3666 29.5198C51.455 29.5198 51.546 29.5124 51.6344 29.5198C51.8089 29.537 51.8704 29.4632 51.8655 29.2885C51.8556 28.8186 51.8532 28.3462 51.8679 27.8762C51.8753 27.6769 51.7942 27.5785 51.632 27.4826C46.7832 24.6014 41.9343 21.7203 37.088 18.8318C36.4883 18.475 35.9157 18.4873 35.3185 18.8466C33.3131 20.0497 31.3004 21.2405 29.2901 22.4363C26.4712 24.1118 23.6548 25.7923 20.8335 27.4604C20.632 27.581 20.5534 27.7065 20.5632 27.9353C20.5804 28.3166 20.5657 28.698 20.5681 29.0794C20.5706 29.5714 20.514 29.5148 20.9933 29.5173C26.0559 29.5198 31.1185 29.5198 36.1787 29.5198ZM36.2131 49.887C41.2634 49.887 46.3138 49.887 51.3641 49.887C51.4526 49.887 51.5435 49.8796 51.632 49.887C51.804 49.9017 51.8704 49.8328 51.8655 49.6557C51.8556 49.2866 51.863 48.9151 51.863 48.546C51.8605 47.3626 51.2437 46.745 50.0591 46.745C44.9965 46.745 39.9363 46.745 34.8737 46.745C30.6639 46.745 26.454 46.7426 22.2417 46.745C21.239 46.745 20.5779 47.4044 20.5657 48.4033C20.5607 48.7503 20.5657 49.0996 20.5657 49.4465C20.5657 49.8845 20.5657 49.8845 20.9908 49.8845C26.0682 49.887 31.1406 49.887 36.2131 49.887ZM33.0846 38.1582C33.0846 35.9144 33.0821 33.6729 33.0895 31.429C33.0895 31.1732 33.0305 31.0797 32.7553 31.0821C31.411 31.0944 30.0667 31.092 28.7224 31.0846C28.484 31.0821 28.3931 31.1313 28.3931 31.3971C28.4004 35.8947 28.4004 40.3923 28.3931 44.8874C28.3931 45.1581 28.4938 45.1925 28.7248 45.1925C30.0568 45.1827 31.3913 45.1778 32.7233 45.195C33.0305 45.1999 33.092 45.1064 33.0895 44.8185C33.0797 42.5993 33.0846 40.3775 33.0846 38.1582ZM39.3465 38.1238C39.3465 40.3677 39.3514 42.6091 39.3416 44.853C39.3416 45.1089 39.4006 45.1974 39.6734 45.195C41.0177 45.1802 42.362 45.1802 43.7063 45.195C43.9791 45.1974 44.038 45.1113 44.038 44.8554C44.0307 40.38 44.0307 35.907 44.0405 31.4315C44.0405 31.1387 43.9447 31.0821 43.6768 31.0846C42.3546 31.0969 41.0324 31.0993 39.7102 31.0821C39.403 31.0772 39.3416 31.1781 39.3416 31.4635C39.3514 33.6828 39.3465 35.902 39.3465 38.1238ZM23.7064 38.1582C23.7064 40.3997 23.7089 42.6411 23.7015 44.8825C23.7015 45.1015 23.7359 45.1974 23.9891 45.195C24.8394 45.1802 25.6897 45.1827 26.54 45.1925C26.7514 45.195 26.83 45.1433 26.83 44.9145C26.8227 40.3997 26.8227 35.8824 26.83 31.3675C26.83 31.1387 26.7514 31.0821 26.54 31.0846C25.7118 31.0944 24.8836 31.0993 24.0554 31.0821C23.7753 31.0747 23.6991 31.1559 23.7015 31.4364C23.7114 33.6754 23.7064 35.9168 23.7064 38.1582ZM34.6574 38.1582C34.6574 40.3997 34.6599 42.6411 34.6525 44.8825C34.6525 45.1015 34.6894 45.1974 34.9401 45.195C35.7904 45.1802 36.6407 45.1827 37.491 45.1925C37.7048 45.195 37.7786 45.1408 37.7786 44.9145C37.7712 40.3997 37.7712 35.8824 37.7786 31.3675C37.7786 31.1412 37.7024 31.0821 37.491 31.0846C36.6628 31.0944 35.8346 31.0993 35.0064 31.0821C34.7287 31.0772 34.6501 31.1535 34.6501 31.4364C34.6624 33.6754 34.6574 35.9168 34.6574 38.1582ZM48.7247 38.1607C48.7247 35.9094 48.7197 33.6557 48.7296 31.4044C48.7296 31.1559 48.6681 31.0772 48.4125 31.0821C47.5745 31.0969 46.734 31.092 45.8935 31.0846C45.6871 31.0821 45.5986 31.1264 45.5986 31.3626C45.606 35.8774 45.606 40.3947 45.5986 44.9096C45.5986 45.131 45.665 45.195 45.8837 45.1901C46.7242 45.1778 47.5622 45.1728 48.4027 45.1925C48.6829 45.1999 48.7296 45.1015 48.7271 44.8505C48.7222 42.6214 48.7247 40.3923 48.7247 38.1607Z" fill="white"/>
<path d="M36.2111 21.6982C37.9486 21.6958 39.3568 23.1081 39.3421 24.8402C39.3274 26.5625 37.929 27.96 36.216 27.96C34.4933 27.9624 33.0703 26.5329 33.0826 24.8107C33.0973 23.0859 34.4908 21.6982 36.2111 21.6982ZM34.6579 24.823C34.6579 25.689 35.3436 26.3878 36.2038 26.3951C37.059 26.405 37.7643 25.7062 37.7717 24.8451C37.7791 23.9643 37.0811 23.2557 36.2087 23.2581C35.351 23.2606 34.6579 23.9569 34.6579 24.823Z" fill="white"/>
</svg>
