<svg width="32" height="25" viewBox="0 0 32 25" fill="none" xmlns="http://www.w3.org/2000/svg">
<path d="M31.7242 1.4477C31.7242 0.567551 31.1563 0.000761047 30.2737 0.000761047C22.6488 -0.000951308 15.0238 0.000761047 7.3989 0.000761047C7.25693 0.000761047 7.11497 0.00247349 6.97472 0.0401453C6.41371 0.190833 6.11439 0.588099 5.9502 1.1155V4.98543H7.66914C7.66743 3.9974 7.66743 3.00937 7.66572 2.02134C7.66572 1.7799 7.72045 1.71654 7.96675 1.71654C11.5979 1.7251 15.2308 1.72168 18.862 1.72168C22.4778 1.72168 26.0918 1.7251 29.7076 1.71483C29.9539 1.71483 30.0086 1.7799 30.0086 2.01963C30.0001 6.11729 30.0001 10.215 30.0086 14.3126C30.0086 14.5524 29.9539 14.6191 29.7076 14.6191C24.8193 14.614 19.931 14.6157 15.0427 14.6174V16.3332C15.3574 16.3332 15.6704 16.3332 15.9851 16.3315C16.0501 16.3315 16.098 16.3349 16.1339 16.3503H21.5866C21.6431 16.3366 21.7286 16.3349 21.8569 16.3349C24.6585 16.3349 27.4601 16.3349 30.2618 16.3349C31.1563 16.3349 31.7242 15.7681 31.7242 14.8743C31.7259 10.3999 31.7259 5.9238 31.7242 1.4477Z" fill="#1FA187"/>
<path d="M2.79095 24.1877C2.58571 24.1449 2.37704 24.1141 2.17522 24.0576C0.883868 23.6929 0.0680053 22.6963 0.0115622 21.3401C-0.0465912 19.9377 0.107352 18.5575 0.639285 17.2441C0.983074 16.3965 1.48251 15.6636 2.31718 15.2167C2.83372 14.941 3.38617 14.8212 3.966 14.8126C4.16611 14.8092 4.344 14.8982 4.50991 15.0027C4.76989 15.1653 5.02473 15.3349 5.28471 15.4958C6.80012 16.4325 8.31554 16.4325 9.83095 15.4924C10.0413 15.3623 10.2551 15.2355 10.4535 15.0883C10.8161 14.816 11.2147 14.7818 11.6457 14.8451C12.8207 15.0181 13.6503 15.6619 14.2096 16.691C14.709 17.6089 14.9211 18.6072 15.0391 19.6329C15.099 20.162 15.1178 20.6911 15.1075 21.2236C15.0767 22.8059 13.9992 23.984 12.4273 24.1569C12.388 24.162 12.3435 24.1552 12.3127 24.1912C9.13653 24.1877 5.96374 24.1877 2.79095 24.1877Z" fill="#1FA187"/>
<path d="M11.8051 10.4117C11.8204 12.8021 9.85007 14.785 7.45038 14.7919C5.0507 14.7987 3.07349 12.8175 3.07178 10.4339C3.07007 8.02294 4.99598 6.06743 7.4179 6.05031C9.83297 6.03147 11.7897 7.97842 11.8051 10.4117Z" fill="#1FA187"/>
</svg>
