<svg width="9" height="8" viewBox="0 0 9 8" fill="none" xmlns="http://www.w3.org/2000/svg">
<path fill-rule="evenodd" clip-rule="evenodd" d="M2.44866e-07 4C2.54141e-07 3.84847 0.0592568 3.70315 0.164734 3.59601C0.270211 3.48887 0.41327 3.42867 0.562437 3.42867L7.07883 3.42867L4.66373 0.976545C4.61144 0.923425 4.56995 0.860363 4.54165 0.790959C4.51335 0.721556 4.49879 0.647169 4.49879 0.572046C4.49879 0.496924 4.51335 0.422537 4.54165 0.353133C4.56995 0.283729 4.61144 0.220667 4.66373 0.167548C4.71602 0.114428 4.7781 0.0722913 4.84643 0.0435433C4.91475 0.0147953 4.98798 -5.00892e-07 5.06193 -4.91659e-07C5.13589 -4.82426e-07 5.20912 0.0147953 5.27744 0.0435434C5.34577 0.0722914 5.40785 0.114429 5.46014 0.167548L8.83476 3.5955C8.88714 3.64857 8.9287 3.71162 8.95705 3.78103C8.98541 3.85044 9 3.92485 9 4C9 4.07515 8.98541 4.14956 8.95705 4.21897C8.9287 4.28838 8.88714 4.35143 8.83476 4.4045L5.46014 7.83245C5.35453 7.93973 5.21129 8 5.06193 8C4.91258 8 4.76934 7.93973 4.66373 7.83245C4.55812 7.72517 4.49879 7.57967 4.49879 7.42795C4.49879 7.27624 4.55812 7.13073 4.66373 7.02345L7.07883 4.57132L0.562437 4.57132C0.41327 4.57132 0.270211 4.51113 0.164734 4.40399C0.0592568 4.29684 2.3559e-07 4.15152 2.44866e-07 4Z" fill="black"/>
</svg>
