<svg width="20" height="23" viewBox="0 0 20 23" fill="none" xmlns="http://www.w3.org/2000/svg">
<path d="M17.2512 0.765657C17.6208 0.902887 17.744 1.1758 17.744 1.55974C17.7394 7.87385 17.741 14.188 17.7363 20.5005C17.7363 20.7102 17.7795 20.7827 18.0028 20.7735C18.4433 20.7534 18.8868 20.7658 19.3289 20.7688C19.7216 20.7704 19.9911 21.0232 19.9942 21.3825C19.9973 21.7526 19.7262 22.0116 19.3227 22.0116C13.1051 22.0132 6.8891 22.0132 0.671529 22.0116C0.269551 22.0116 -0.00305445 21.751 2.58381e-05 21.381C0.00310613 21.0217 0.275712 20.7688 0.666909 20.7673C1.13665 20.7642 1.6064 20.7611 2.07614 20.7704C2.22554 20.7735 2.27482 20.7241 2.2548 20.5823C2.2471 20.5283 2.25326 20.4712 2.25326 20.4157C2.25326 14.1294 2.2548 7.84302 2.25018 1.55666C2.25018 1.17272 2.37493 0.901345 2.74302 0.762573C7.58062 0.765657 12.4167 0.765657 17.2512 0.765657ZM16.4965 11.3894C16.4965 8.33951 16.4965 5.28962 16.4981 2.24126C16.4981 2.09324 16.4965 2.00689 16.2978 2.00689C12.0979 2.01306 7.89789 2.01306 3.69946 2.00844C3.53466 2.00844 3.49462 2.05315 3.49462 2.21505C3.49924 8.33489 3.49924 14.4547 3.49462 20.5746C3.49462 20.7272 3.53158 20.7735 3.68867 20.7719C4.60044 20.7642 5.51221 20.7642 6.42397 20.7719C6.59647 20.7735 6.64113 20.7272 6.63959 20.5561C6.63189 19.0481 6.63497 17.5416 6.63497 16.0336C6.63497 15.5048 6.85829 15.2843 7.39272 15.2827C9.13309 15.2827 10.8735 15.2827 12.6154 15.2827C13.1313 15.2827 13.3562 15.5094 13.3562 16.029C13.3562 17.5293 13.3592 19.0296 13.3531 20.5314C13.3515 20.7118 13.387 20.7765 13.5856 20.7735C14.4697 20.7611 15.3537 20.7611 16.2378 20.7735C16.4411 20.7765 16.5011 20.7334 16.5011 20.5175C16.495 17.4738 16.4965 14.4316 16.4965 11.3894ZM10.0002 16.5286C9.35795 16.5286 8.71571 16.5332 8.07347 16.5255C7.92099 16.524 7.87633 16.5625 7.87633 16.7198C7.88249 18.0057 7.88249 19.2917 7.87633 20.5761C7.87633 20.7272 7.91021 20.7735 8.06885 20.7735C9.35333 20.7658 10.6378 20.7673 11.9208 20.7735C12.0717 20.7735 12.1179 20.7411 12.1179 20.5823C12.1102 19.2963 12.1117 18.0104 12.1179 16.726C12.1179 16.5764 12.0855 16.5255 11.9254 16.527C11.2847 16.5332 10.6424 16.5286 10.0002 16.5286Z" fill="#696969"/>
<path d="M7.12936 7.81519C6.64576 7.81519 6.16369 7.81673 5.68009 7.81519C5.25347 7.81365 4.99164 7.55769 4.9901 7.13367C4.98702 6.15302 4.98702 5.17236 4.9901 4.19016C4.99164 3.77693 5.25039 3.51789 5.66623 3.51635C6.64576 3.51327 7.62529 3.51327 8.60636 3.51635C9.03144 3.51789 9.28557 3.77693 9.28557 4.20713C9.28865 5.18161 9.28865 6.1561 9.28557 7.12904C9.28403 7.55615 9.02528 7.81211 8.6002 7.81365C8.1089 7.81828 7.61913 7.81519 7.12936 7.81519ZM6.233 5.64419C6.233 5.90014 6.23608 6.15456 6.23146 6.41051C6.22992 6.51845 6.24994 6.57396 6.37623 6.57241C6.88602 6.56625 7.39735 6.56779 7.90714 6.57241C8.02111 6.57396 8.04575 6.52462 8.04421 6.42285C8.04113 5.91864 8.03959 5.41444 8.04421 4.91178C8.04575 4.79305 8.00263 4.75759 7.88865 4.75913C7.38503 4.76376 6.8814 4.76376 6.37931 4.75913C6.25456 4.75759 6.22838 4.81001 6.23146 4.92103C6.23608 5.16157 6.233 5.40211 6.233 5.64419Z" fill="#696969"/>
<path d="M12.848 7.81519C12.3644 7.81519 11.8823 7.81673 11.3987 7.81519C10.9721 7.81211 10.7133 7.55769 10.7118 7.13212C10.7087 6.15147 10.7087 5.17082 10.7118 4.18862C10.7133 3.77539 10.9736 3.51789 11.3894 3.51635C12.369 3.51327 13.3485 3.51327 14.3296 3.51635C14.7454 3.51789 15.0042 3.77385 15.0072 4.18862C15.0119 5.16928 15.0103 6.14993 15.0072 7.13212C15.0057 7.55769 14.7454 7.81211 14.3188 7.81519C13.8275 7.81827 13.3377 7.81519 12.848 7.81519ZM13.7628 5.68273C13.7628 5.42677 13.7613 5.17236 13.7643 4.9164C13.7659 4.82235 13.7566 4.75759 13.635 4.75913C13.1175 4.76375 12.6015 4.76221 12.0841 4.75913C11.9855 4.75913 11.9516 4.79613 11.9531 4.89327C11.9562 5.40365 11.9562 5.91556 11.9531 6.42593C11.9531 6.53078 11.9824 6.57241 12.0933 6.57241C12.6031 6.56779 13.1144 6.56779 13.6242 6.57241C13.7335 6.57395 13.769 6.53541 13.7659 6.42747C13.7597 6.17923 13.7628 5.93098 13.7628 5.68273Z" fill="#696969"/>
<path d="M9.28539 11.4712C9.28539 11.9476 9.28693 12.4241 9.28539 12.9005C9.28385 13.3585 9.03897 13.6052 8.58154 13.6067C7.61587 13.6098 6.6502 13.6098 5.68299 13.6067C5.23789 13.6052 4.98992 13.3538 4.98992 12.9113C4.98838 11.9445 4.98838 10.9777 4.98992 10.0094C4.99146 9.5669 5.24251 9.31402 5.68299 9.31402C6.65636 9.31248 7.62819 9.31248 8.60157 9.31402C9.02819 9.31556 9.28231 9.56844 9.28539 9.99863C9.28847 10.489 9.28539 10.9793 9.28539 11.4712ZM7.13381 10.5583C6.88584 10.5583 6.63634 10.563 6.38838 10.5568C6.27749 10.5537 6.2282 10.5799 6.22974 10.7048C6.2359 11.209 6.23436 11.7132 6.23128 12.219C6.22974 12.3269 6.26825 12.3655 6.37452 12.3639C6.88584 12.3608 7.39563 12.3608 7.90696 12.3639C8.02093 12.3639 8.04403 12.3115 8.04403 12.2113C8.04095 11.7071 8.03941 11.2029 8.04403 10.6971C8.04557 10.5861 8.00553 10.5537 7.89926 10.5568C7.64514 10.563 7.38947 10.5583 7.13381 10.5583Z" fill="#696969"/>
<path d="M15.0071 11.4511C15.0071 11.9275 15.0087 12.404 15.0071 12.8804C15.0056 13.363 14.7653 13.6051 14.2802 13.6051C13.3284 13.6066 12.375 13.6082 11.4232 13.6051C10.9535 13.6036 10.7117 13.3584 10.7101 12.8866C10.7086 11.9337 10.7086 10.9808 10.7101 10.0263C10.7117 9.5576 10.9581 9.31244 11.4263 9.31244C12.3858 9.31089 13.3438 9.31089 14.3033 9.31244C14.7561 9.31244 15.0041 9.56222 15.0056 10.0202C15.0087 10.4982 15.0071 10.9746 15.0071 11.4511ZM13.7627 11.4726C13.7627 11.2244 13.7581 10.9746 13.7642 10.7264C13.7673 10.6092 13.7442 10.5537 13.6071 10.5552C13.1035 10.5629 12.5999 10.5598 12.0947 10.5568C11.9915 10.5552 11.9484 10.583 11.9484 10.6955C11.953 11.1997 11.953 11.7039 11.9484 12.2097C11.9469 12.3299 11.9915 12.3654 12.1055 12.3639C12.603 12.3592 13.0989 12.3592 13.5964 12.3639C13.7211 12.3654 13.7673 12.3269 13.7627 12.1973C13.7581 11.9568 13.7627 11.7147 13.7627 11.4726Z" fill="#696969"/>
</svg>
