<svg width="28" height="20" viewBox="0 0 28 20" fill="none" xmlns="http://www.w3.org/2000/svg">
<path fill-rule="evenodd" clip-rule="evenodd" d="M1.54579 0.4667C0.105404 1.28381 0.0122405 1.85505 0.000671196 9.94174C-0.0108981 18.1721 0.110884 18.8836 1.656 19.6041C2.78766 20.132 25.2023 20.132 26.334 19.6041C27.874 18.8861 28 18.1615 28 10.0343C28 1.95228 27.8837 1.2433 26.4336 0.475738C25.2462 -0.152836 2.65218 -0.16125 1.54579 0.4667ZM26.1733 1.90148C26.5115 2.24771 26.7822 2.94017 26.7822 3.45967V4.39458H13.995H1.20784V3.45967C1.20784 2.94017 1.4785 2.24771 1.81675 1.90148C2.40435 1.30002 2.83151 1.27821 13.995 1.27821C25.1585 1.27821 25.5857 1.30002 26.1733 1.90148ZM26.7822 12.4972C26.7822 17.068 26.7313 17.5354 26.1733 18.1066C25.5857 18.7081 25.1585 18.7299 13.995 18.7299C2.83151 18.7299 2.40435 18.7081 1.81675 18.1066C1.25868 17.5354 1.20784 17.068 1.20784 12.4972V7.51096H13.995H26.7822V12.4972ZM4.2524 10.0041C4.2524 10.6015 4.45548 10.6273 9.12371 10.6273C13.7919 10.6273 13.995 10.6015 13.995 10.0041C13.995 9.40665 13.7919 9.38079 9.12371 9.38079C4.45548 9.38079 4.2524 9.40665 4.2524 10.0041Z" fill="#1FA187"/>
</svg>
