<svg width="28" height="28" viewBox="0 0 28 28" fill="none" xmlns="http://www.w3.org/2000/svg">
<path d="M27.36 13.6801C27.36 6.12461 21.2354 0 13.68 0C6.12459 0 0 6.12461 0 13.6801C0 20.5079 5.00181 26.1684 11.5419 27.1939V17.6341H8.06816V13.6801H11.5419V10.6664C11.5419 7.23726 13.5847 5.34434 16.7099 5.34434C18.2076 5.34434 19.7722 5.61186 19.7722 5.61186V8.97817H18.0475C16.3471 8.97817 15.8181 10.032 15.8181 11.1143V13.6801H19.6121L19.0061 17.6341H15.8181V27.1939C22.3582 26.1684 27.36 20.5079 27.36 13.6801Z" fill="white"/>
<path d="M19.0038 17.634L19.6097 13.68H15.8178V11.1142C15.8178 10.0319 16.3468 8.97807 18.0472 8.97807H19.7719V5.61176C19.7719 5.61176 18.2073 5.34424 16.7096 5.34424C13.5845 5.34424 11.5416 7.23715 11.5416 10.6663V13.68H8.06787V17.634H11.5416V27.1938C12.2388 27.3033 12.9521 27.36 13.6797 27.36C14.4073 27.36 15.1207 27.3033 15.8178 27.1938V17.634H19.0038Z" fill="#213458"/>
</svg>
