<svg width="20" height="22" viewBox="0 0 20 22" fill="none" xmlns="http://www.w3.org/2000/svg">
<path d="M13.7494 20.6282C13.7994 20.9949 13.6744 21.3859 13.3869 21.6425C12.8995 22.1192 12.1122 22.1192 11.6247 21.6425L6.61306 16.7421C6.32561 16.461 6.20063 16.0822 6.25062 15.7278V9.47091L0.26411 1.97973C-0.16082 1.45424 -0.0608367 0.684349 0.476574 0.268852C0.714035 0.0977643 0.976492 0 1.25145 0H18.7486C19.0235 0 19.286 0.0977643 19.5234 0.268852C20.0608 0.684349 20.1608 1.45424 19.7359 1.97973L13.7494 9.47091V20.6282ZM3.80102 2.44411L8.75021 8.62769V15.3734L11.2498 17.8175V8.61547L16.199 2.44411H3.80102Z" fill="white"/>
</svg>
