<svg width="28" height="28" viewBox="0 0 28 28" fill="none" xmlns="http://www.w3.org/2000/svg">
<path d="M14.0394 27.359C21.5944 27.359 27.7189 21.2345 27.7189 13.6795C27.7189 6.12453 21.5944 0 14.0394 0C6.4844 0 0.359863 6.12453 0.359863 13.6795C0.359863 21.2345 6.4844 27.359 14.0394 27.359Z" fill="white"/>
<path d="M14.0394 6.6178C16.3396 6.6178 16.6111 6.62591 17.519 6.66847C18.358 6.70697 18.814 6.84681 19.118 6.96435C19.5193 7.1204 19.8071 7.30684 20.109 7.60881C20.411 7.91077 20.5974 8.19652 20.7535 8.59981C20.871 8.9038 21.0108 9.35978 21.0494 10.1988C21.0899 11.1067 21.1 11.3803 21.1 13.6785C21.1 15.9766 21.0919 16.2502 21.0494 17.1581C21.0108 17.9971 20.871 18.4531 20.7535 18.7571C20.5974 19.1584 20.411 19.4461 20.109 19.7481C19.8071 20.0501 19.5213 20.2365 19.118 20.3926C18.814 20.5101 18.358 20.6499 17.519 20.6884C16.6111 20.729 16.3396 20.7391 14.0394 20.7391C11.7392 20.7391 11.4676 20.731 10.5597 20.6884C9.7207 20.6499 9.26471 20.5101 8.96072 20.3926C8.55945 20.2365 8.27168 20.0501 7.96972 19.7481C7.66776 19.4461 7.48131 19.1604 7.32526 18.7571C7.20772 18.4531 7.06788 17.9971 7.02938 17.1581C6.98884 16.2502 6.97871 15.9766 6.97871 13.6785C6.97871 11.3803 6.98682 11.1067 7.02938 10.1988C7.06788 9.35978 7.20772 8.9038 7.32526 8.59981C7.48131 8.19854 7.66776 7.91077 7.96972 7.60881C8.27168 7.30684 8.55743 7.1204 8.96072 6.96435C9.26471 6.84681 9.7207 6.70697 10.5597 6.66847C11.4676 6.62591 11.7392 6.6178 14.0394 6.6178ZM14.0394 5.06543C11.7007 5.06543 11.4068 5.07556 10.4888 5.11812C9.57275 5.16068 8.94653 5.30457 8.39733 5.51939C7.83191 5.74029 7.3516 6.03414 6.8713 6.51242C6.39303 6.99069 6.09714 7.471 5.87827 8.03844C5.66548 8.58562 5.51956 9.21184 5.477 10.1299C5.43445 11.0479 5.42432 11.3418 5.42432 13.6805C5.42432 16.0192 5.43445 16.313 5.477 17.2311C5.51956 18.1471 5.66345 18.7733 5.87827 19.3225C6.09917 19.8879 6.39303 20.3682 6.8713 20.8485C7.34958 21.3268 7.82988 21.6227 8.39733 21.8416C8.94451 22.0544 9.57073 22.2003 10.4888 22.2428C11.4068 22.2854 11.7007 22.2955 14.0394 22.2955C16.3781 22.2955 16.6719 22.2854 17.59 22.2428C18.506 22.2003 19.1322 22.0564 19.6814 21.8416C20.2468 21.6207 20.7271 21.3268 21.2074 20.8485C21.6857 20.3703 21.9816 19.89 22.2005 19.3225C22.4132 18.7753 22.5592 18.1491 22.6017 17.2311C22.6443 16.313 22.6544 16.0192 22.6544 13.6805C22.6544 11.3418 22.6443 11.0479 22.6017 10.1299C22.5592 9.21387 22.4153 8.58765 22.2005 8.03844C21.9796 7.47302 21.6857 6.99272 21.2074 6.51242C20.7292 6.03414 20.2488 5.73826 19.6814 5.51939C19.1342 5.30659 18.508 5.16068 17.59 5.11812C16.6719 5.07556 16.3781 5.06543 14.0394 5.06543Z" fill="#213458"/>
<path d="M14.0392 9.25684C11.5972 9.25684 9.61719 11.2368 9.61719 13.6789C9.61719 16.1209 11.5972 18.1009 14.0392 18.1009C16.4813 18.1009 18.4612 16.1209 18.4612 13.6789C18.4612 11.2368 16.4813 9.25684 14.0392 9.25684ZM14.0392 16.5505C12.4544 16.5505 11.1675 15.2657 11.1675 13.6789C11.1675 12.092 12.4524 10.8072 14.0392 10.8072C15.624 10.8072 16.9109 12.092 16.9109 13.6789C16.9109 15.2657 15.624 16.5505 14.0392 16.5505Z" fill="#213458"/>
<path d="M18.6376 10.1135C19.2084 10.1135 19.6711 9.65077 19.6711 9.07995C19.6711 8.50913 19.2084 8.04639 18.6376 8.04639C18.0668 8.04639 17.604 8.50913 17.604 9.07995C17.604 9.65077 18.0668 10.1135 18.6376 10.1135Z" fill="#213458"/>
</svg>
