<svg width="32" height="32" viewBox="0 0 32 32" fill="none" xmlns="http://www.w3.org/2000/svg">
<path d="M15.9284 31.8568C24.7254 31.8568 31.8568 24.7254 31.8568 15.9284C31.8568 7.13139 24.7254 0 15.9284 0C7.13139 0 0 7.13139 0 15.9284C0 24.7254 7.13139 31.8568 15.9284 31.8568Z" fill="#1FA187"/>
<path d="M15.9283 7.70577C18.6067 7.70577 18.9229 7.71521 19.98 7.76477C20.957 7.8096 21.4879 7.97242 21.8419 8.10929C22.3091 8.29099 22.6442 8.50809 22.9958 8.8597C23.3474 9.2113 23.5645 9.54403 23.7462 10.0136C23.8831 10.3676 24.0459 10.8985 24.0907 11.8755C24.1379 12.9326 24.1497 13.2512 24.1497 15.9272C24.1497 18.6032 24.1403 18.9217 24.0907 19.9789C24.0459 20.9558 23.8831 21.4868 23.7462 21.8408C23.5645 22.308 23.3474 22.6431 22.9958 22.9947C22.6442 23.3463 22.3115 23.5634 21.8419 23.7451C21.4879 23.8819 20.957 24.0448 19.98 24.0896C18.9229 24.1368 18.6067 24.1486 15.9283 24.1486C13.25 24.1486 12.9338 24.1392 11.8766 24.0896C10.8997 24.0448 10.3687 23.8819 10.0148 23.7451C9.54752 23.5634 9.21244 23.3463 8.86083 22.9947C8.50923 22.6431 8.29213 22.3103 8.11043 21.8408C7.97357 21.4868 7.81074 20.9558 7.7659 19.9789C7.71871 18.9217 7.70691 18.6032 7.70691 15.9272C7.70691 13.2512 7.71635 12.9326 7.7659 11.8755C7.81074 10.8985 7.97357 10.3676 8.11043 10.0136C8.29213 9.54639 8.50923 9.2113 8.86083 8.8597C9.21244 8.50809 9.54516 8.29099 10.0148 8.10929C10.3687 7.97242 10.8997 7.8096 11.8766 7.76477C12.9338 7.71521 13.25 7.70577 15.9283 7.70577ZM15.9283 5.89819C13.2052 5.89819 12.863 5.90999 11.794 5.95955C10.7274 6.0091 9.99824 6.17665 9.35874 6.42678C8.70037 6.68399 8.1411 7.02616 7.58184 7.58306C7.02494 8.13997 6.68041 8.69923 6.42556 9.35997C6.17778 9.9971 6.00788 10.7263 5.95832 11.7952C5.90877 12.8642 5.89697 13.2064 5.89697 15.9295C5.89697 18.6527 5.90877 18.9949 5.95832 20.0639C6.00788 21.1305 6.17542 21.8596 6.42556 22.4991C6.68277 23.1575 7.02494 23.7168 7.58184 24.276C8.13874 24.8329 8.69801 25.1775 9.35874 25.4323C9.99588 25.6801 10.725 25.85 11.794 25.8995C12.863 25.9491 13.2052 25.9609 15.9283 25.9609C18.6515 25.9609 18.9937 25.9491 20.0626 25.8995C21.1292 25.85 21.8584 25.6824 22.4979 25.4323C23.1563 25.1751 23.7155 24.8329 24.2748 24.276C24.8317 23.7191 25.1762 23.1599 25.4311 22.4991C25.6789 21.862 25.8488 21.1328 25.8983 20.0639C25.9479 18.9949 25.9597 18.6527 25.9597 15.9295C25.9597 13.2064 25.9479 12.8642 25.8983 11.7952C25.8488 10.7286 25.6812 9.99946 25.4311 9.35997C25.1739 8.70159 24.8317 8.14233 24.2748 7.58306C23.7179 7.02616 23.1586 6.68163 22.4979 6.42678C21.8608 6.17901 21.1316 6.0091 20.0626 5.95955C18.9937 5.90999 18.6515 5.89819 15.9283 5.89819Z" fill="white"/>
<path d="M15.9283 10.7787C13.0848 10.7787 10.7793 13.0842 10.7793 15.9277C10.7793 18.7712 13.0848 21.0767 15.9283 21.0767C18.7718 21.0767 21.0773 18.7712 21.0773 15.9277C21.0773 13.0842 18.7718 10.7787 15.9283 10.7787ZM15.9283 19.2715C14.083 19.2715 12.5845 17.7754 12.5845 15.9277C12.5845 14.08 14.0806 12.5839 15.9283 12.5839C17.7736 12.5839 19.2721 14.08 19.2721 15.9277C19.2721 17.7754 17.7736 19.2715 15.9283 19.2715Z" fill="white"/>
<path d="M21.2826 11.7763C21.9473 11.7763 22.4861 11.2375 22.4861 10.5729C22.4861 9.9082 21.9473 9.36938 21.2826 9.36938C20.6179 9.36938 20.0791 9.9082 20.0791 10.5729C20.0791 11.2375 20.6179 11.7763 21.2826 11.7763Z" fill="white"/>
</svg>
