<svg width="20" height="20" viewBox="0 0 20 20" fill="none" xmlns="http://www.w3.org/2000/svg">
<path fill-rule="evenodd" clip-rule="evenodd" d="M0.293409 0.284019C-0.097803 0.675417 -0.097803 19.3151 0.293409 19.7065C0.684621 20.0978 19.3154 20.0978 19.7066 19.7065C20.0978 19.3151 20.0978 0.675417 19.7066 0.284019C19.3281 -0.094673 13.3721 -0.094673 12.9936 0.284019C12.8285 0.4492 12.7215 1.25219 12.7215 2.3261V4.0959H10H7.27853V2.3261C7.27853 1.25219 7.17148 0.4492 7.00638 0.284019C6.62787 -0.094673 0.671921 -0.094673 0.293409 0.284019ZM6.37137 9.99523V19.0711H3.64989H0.92842V9.99523V0.919332H3.64989H6.37137V9.99523ZM19.0716 9.99523V19.0711H16.3501H13.6286V9.99523V0.919332H16.3501H19.0716V9.99523ZM1.94262 3.87921C1.63918 4.37067 2.23155 4.57148 3.78574 4.50409C4.99566 4.45167 5.35081 4.3591 5.35081 4.0959C5.35081 3.83111 4.98954 3.7408 3.72587 3.6893C2.69556 3.64732 2.04309 3.71675 1.94262 3.87921ZM14.6428 3.87921C14.3394 4.37067 14.9318 4.57148 16.486 4.50409C17.6959 4.45167 18.051 4.3591 18.051 4.0959C18.051 3.83111 17.6898 3.7408 16.4261 3.6893C15.3958 3.64732 14.7433 3.71675 14.6428 3.87921ZM12.7215 12.0373V19.0711H10H7.27853V12.0373V5.00349H10H12.7215V12.0373ZM8.29273 7.96337C7.98928 8.45483 8.58166 8.65563 10.1358 8.58824C11.3458 8.53583 11.7009 8.44326 11.7009 8.18005C11.7009 7.91526 11.3396 7.82496 10.076 7.77345C9.04567 7.73148 8.3932 7.80091 8.29273 7.96337ZM1.94262 14.3165C1.63918 14.808 2.23155 15.0088 3.78574 14.9414C4.99566 14.889 5.35081 14.7964 5.35081 14.5332C5.35081 14.2684 4.98954 14.1781 3.72587 14.1266C2.69556 14.0846 2.04309 14.154 1.94262 14.3165ZM14.6428 14.3165C14.3394 14.808 14.9318 15.0088 16.486 14.9414C17.6959 14.889 18.051 14.7964 18.051 14.5332C18.051 14.2684 17.6898 14.1781 16.4261 14.1266C15.3958 14.0846 14.7433 14.154 14.6428 14.3165ZM1.94262 16.1317C1.63918 16.6231 2.23155 16.8239 3.78574 16.7566C4.99566 16.7041 5.35081 16.6116 5.35081 16.3484C5.35081 16.0836 4.98954 15.9933 3.72587 15.9418C2.69556 15.8998 2.04309 15.9692 1.94262 16.1317ZM14.6428 16.1317C14.3394 16.6231 14.9318 16.8239 16.486 16.7566C17.6959 16.7041 18.051 16.6116 18.051 16.3484C18.051 16.0836 17.6898 15.9933 16.4261 15.9418C15.3958 15.8998 14.7433 15.9692 14.6428 16.1317ZM8.29908 16.5753C8.00561 17.0504 8.48913 17.256 9.89999 17.256C11.2095 17.256 11.3607 17.209 11.3607 16.8022C11.3607 16.3953 11.2095 16.3484 9.89999 16.3484C9.09647 16.3484 8.37619 16.4505 8.29908 16.5753Z" fill="#1FA187"/>
</svg>
