<svg width="33" height="32" viewBox="0 0 33 32" fill="none" xmlns="http://www.w3.org/2000/svg">
<path d="M16.7853 31.8568C25.5823 31.8568 32.7137 24.7254 32.7137 15.9284C32.7137 7.13139 25.5823 0 16.7853 0C7.98832 0 0.856934 7.13139 0.856934 15.9284C0.856934 24.7254 7.98832 31.8568 16.7853 31.8568Z" fill="#1FA187"/>
<path d="M18.0197 13.7556C18.2816 13.4606 18.4964 13.1633 18.7654 12.9108C19.5913 12.1321 20.5682 11.7404 21.7103 11.7498C22.338 11.7545 22.9563 11.7994 23.5604 11.974C24.9432 12.3728 25.7456 13.3261 26.1302 14.6759C26.4181 15.6882 26.47 16.7289 26.4723 17.7719C26.4771 19.9712 26.4653 22.1729 26.47 24.3722C26.47 24.5775 26.4134 24.6317 26.2104 24.6317C25.0777 24.6223 23.9427 24.6223 22.81 24.6317C22.6094 24.6341 22.5669 24.5728 22.5669 24.384C22.574 22.2909 22.574 20.1978 22.5669 18.1023C22.5646 17.5784 22.5315 17.0522 22.3852 16.5425C22.1139 15.6033 21.4413 15.1243 20.4573 15.1762C19.1122 15.247 18.4138 15.9124 18.2439 17.2787C18.2037 17.6044 18.1825 17.9324 18.1849 18.2604C18.1872 20.2969 18.1825 22.3333 18.1896 24.3698C18.1896 24.5728 18.14 24.6317 17.9324 24.6317C16.7902 24.6223 15.6481 24.6223 14.506 24.6317C14.3219 24.6341 14.27 24.5846 14.27 24.3981C14.2747 20.3677 14.2747 16.3348 14.27 12.3043C14.27 12.1038 14.3361 12.0589 14.5249 12.0589C15.608 12.066 16.6935 12.0684 17.7766 12.0589C17.9772 12.0566 18.0268 12.1226 18.0244 12.3114C18.0126 12.7928 18.0197 13.2742 18.0197 13.7556Z" fill="white"/>
<path d="M11.8087 18.3645C11.8087 20.3585 11.8063 22.3525 11.8134 24.3465C11.8134 24.5683 11.7591 24.6344 11.5302 24.632C10.3975 24.6202 9.26482 24.6226 8.12978 24.6297C7.94807 24.632 7.8938 24.5848 7.8938 24.3984C7.89852 20.3609 7.89852 16.3233 7.8938 12.2834C7.8938 12.1158 7.93391 12.0569 8.11089 12.0569C9.2601 12.0639 10.4093 12.0663 11.5585 12.0545C11.7803 12.0521 11.8087 12.1371 11.8087 12.3282C11.8063 14.3411 11.8087 16.3516 11.8087 18.3645Z" fill="white"/>
<path d="M12.1202 8.05704C12.1225 9.31007 11.1055 10.3295 9.85482 10.3295C8.62066 10.3295 7.59653 9.31008 7.59181 8.07592C7.58709 6.82996 8.61123 5.80347 9.85954 5.80347C11.0984 5.80819 12.1202 6.82524 12.1202 8.05704Z" fill="white"/>
</svg>
