<svg width="29" height="28" viewBox="0 0 29 28" fill="none" xmlns="http://www.w3.org/2000/svg">
<path d="M14.3987 27.359C21.9537 27.359 28.0783 21.2345 28.0783 13.6795C28.0783 6.12453 21.9537 0 14.3987 0C6.84376 0 0.719238 6.12453 0.719238 13.6795C0.719238 21.2345 6.84376 27.359 14.3987 27.359Z" fill="white"/>
<path d="M15.4585 11.8136C15.6835 11.5602 15.8679 11.3049 16.0989 11.088C16.8082 10.4193 17.6473 10.0829 18.6281 10.091C19.1672 10.095 19.6982 10.1335 20.217 10.2835C21.4046 10.626 22.0936 11.4447 22.4239 12.6039C22.6712 13.4733 22.7158 14.3671 22.7178 15.2628C22.7218 17.1516 22.7117 19.0424 22.7158 20.9312C22.7158 21.1075 22.6671 21.1541 22.4928 21.1541C21.5201 21.146 20.5453 21.146 19.5725 21.1541C19.4003 21.1562 19.3638 21.1035 19.3638 20.9413C19.3699 19.1438 19.3699 17.3462 19.3638 15.5466C19.3618 15.0967 19.3334 14.6447 19.2077 14.207C18.9747 13.4004 18.3971 12.989 17.552 13.0336C16.3968 13.0944 15.797 13.6659 15.6511 14.8393C15.6166 15.1189 15.5984 15.4006 15.6004 15.6823C15.6024 17.4313 15.5984 19.1802 15.6045 20.9292C15.6045 21.1035 15.5619 21.1541 15.3835 21.1541C14.4027 21.146 13.4218 21.146 12.4409 21.1541C12.2829 21.1562 12.2383 21.1136 12.2383 20.9535C12.2423 17.4921 12.2423 14.0286 12.2383 10.5672C12.2383 10.395 12.295 10.3564 12.4571 10.3564C13.3874 10.3625 14.3196 10.3646 15.2498 10.3564C15.4221 10.3544 15.4646 10.4112 15.4626 10.5733C15.4525 10.9867 15.4585 11.4001 15.4585 11.8136Z" fill="#213458"/>
<path d="M10.1243 15.7717C10.1243 17.4842 10.1223 19.1966 10.1284 20.9091C10.1284 21.0996 10.0818 21.1564 9.88518 21.1543C8.91242 21.1442 7.93966 21.1462 6.96487 21.1523C6.80882 21.1543 6.76221 21.1138 6.76221 20.9537C6.76626 17.4862 6.76626 14.0187 6.76221 10.5492C6.76221 10.4053 6.79666 10.3546 6.94865 10.3546C7.9356 10.3607 8.92256 10.3627 9.90951 10.3526C10.1 10.3506 10.1243 10.4235 10.1243 10.5877C10.1223 12.3163 10.1243 14.043 10.1243 15.7717Z" fill="#213458"/>
<path d="M10.392 6.91928C10.394 7.99541 9.52054 8.87089 8.44644 8.87089C7.38653 8.87089 6.507 7.99541 6.50294 6.9355C6.49889 5.86546 7.37843 4.98389 8.4505 4.98389C9.51446 4.98794 10.392 5.8614 10.392 6.91928Z" fill="#213458"/>
</svg>
