<svg width="24" height="19" viewBox="0 0 24 19" fill="none" xmlns="http://www.w3.org/2000/svg">
<path d="M0 1.26684C0.147854 0.791936 0.417377 0.434214 0.922545 0.298526C1.04884 0.264604 1.17667 0.263062 1.3045 0.263062C8.17046 0.263062 15.0364 0.263062 21.9024 0.263062C22.6971 0.263062 23.2084 0.771891 23.2084 1.56597C23.21 5.59652 23.21 9.62707 23.2084 13.6576C23.2084 14.4625 22.6971 14.9729 21.8916 14.9729C19.3688 14.9744 16.8461 14.9729 14.3233 14.9729C13.9753 14.9729 13.9645 14.9744 14.0076 15.3105C14.1524 16.4392 14.4943 17.4893 15.2567 18.3666C15.3799 18.5069 15.4892 18.6596 15.5801 18.7721C12.9572 18.7721 10.2604 18.7721 7.55903 18.7721C7.55595 18.6935 7.62833 18.6796 7.66838 18.6442C8.38608 18.0089 8.76804 17.1793 9.01908 16.2773C9.12073 15.9134 9.17772 15.5403 9.22392 15.1641C9.24548 14.9883 9.1885 14.9667 9.03603 14.9667C7.63141 14.9713 6.2268 14.9698 4.82065 14.9698C3.71791 14.9698 2.61516 14.9698 1.51242 14.9698C0.623759 14.9698 0.332673 14.777 0.00154165 13.9691C1.50408e-06 9.73809 0 5.50247 0 1.26684ZM11.6281 1.81268C8.35836 1.81268 5.0871 1.81576 1.81737 1.80805C1.59559 1.80805 1.54631 1.8651 1.54631 2.08251C1.55401 5.7723 1.55401 9.46209 1.54631 13.1519C1.54631 13.3662 1.59405 13.4294 1.81737 13.4294C8.34296 13.4233 14.8685 13.4233 21.3941 13.4294C21.6159 13.4294 21.6652 13.3693 21.6652 13.1534C21.659 9.46363 21.659 5.77384 21.6652 2.08406C21.6652 1.86819 21.6159 1.80805 21.3941 1.8096C18.1383 1.81576 14.8824 1.81268 11.6281 1.81268Z" fill="#696969"/>
</svg>
