<svg width="22" height="18" viewBox="0 0 22 18" fill="none" xmlns="http://www.w3.org/2000/svg">
<path d="M20.35 0.00075H1.65C1.21239 0.00075 0.792709 0.17854 0.483274 0.495007C0.173839 0.811475 0 1.2407 0 1.68825L0 12.9382C0 13.3858 0.173839 13.815 0.483274 14.1315C0.792709 14.448 1.21239 14.6257 1.65 14.6257H10.0753V15.75H4.576C4.28426 15.75 4.00447 15.8685 3.79818 16.0795C3.59189 16.2905 3.476 16.5766 3.476 16.875C3.476 17.1734 3.59189 17.4595 3.79818 17.6705C4.00447 17.8815 4.28426 18 4.576 18H17.776C18.0677 18 18.3475 17.8815 18.5538 17.6705C18.7601 17.4595 18.876 17.1734 18.876 16.875C18.876 16.5766 18.7601 16.2905 18.5538 16.0795C18.3475 15.8685 18.0677 15.75 17.776 15.75H12.2753V14.625H20.35C20.7876 14.625 21.2073 14.4472 21.5167 14.1307C21.8262 13.8143 22 13.3851 22 12.9375V1.6875C22 1.23995 21.8262 0.810725 21.5167 0.494257C21.2073 0.17779 20.7876 0 20.35 0V0.00075ZM19.8 12.3757H2.2V2.25075H19.8V12.3757Z" fill="black"/>
</svg>
