<svg width="33" height="32" viewBox="0 0 33 32" fill="none" xmlns="http://www.w3.org/2000/svg">
<path d="M16.642 31.8568C25.439 31.8568 32.5704 24.7254 32.5704 15.9284C32.5704 7.13139 25.439 0 16.642 0C7.84501 0 0.713623 7.13139 0.713623 15.9284C0.713623 24.7254 7.84501 31.8568 16.642 31.8568Z" fill="#1FA187"/>
<path d="M13.4233 25.1032C21.2034 25.1032 25.4581 18.6587 25.4581 13.0684C25.4581 12.8843 25.4533 12.7026 25.4463 12.5209C26.2722 11.9239 26.9895 11.1782 27.5559 10.3311C26.7984 10.6685 25.9819 10.8951 25.1277 10.9965C26.0008 10.4727 26.671 9.64439 26.9872 8.65801C26.1707 9.14176 25.2646 9.49572 24.3018 9.6845C23.5301 8.86331 22.4305 8.34888 21.2152 8.34888C18.879 8.34888 16.9841 10.2438 16.9841 12.5776C16.9841 12.9103 17.0219 13.2312 17.0951 13.5427C13.579 13.3657 10.4618 11.6832 8.3781 9.12288C8.0147 9.74822 7.80468 10.475 7.80468 11.249C7.80468 12.7168 8.55036 14.0123 9.68776 14.7698C8.99399 14.7486 8.3427 14.5574 7.77164 14.2412C7.77164 14.2577 7.77164 14.2766 7.77164 14.2955C7.77164 16.3438 9.22997 18.0546 11.165 18.4416C10.8087 18.5383 10.4358 18.5902 10.0512 18.5902C9.77979 18.5902 9.51314 18.5643 9.25592 18.5147C9.79395 20.1949 11.3561 21.4172 13.2062 21.4526C11.7573 22.5877 9.93555 23.2626 7.95334 23.2626C7.61118 23.2626 7.27609 23.2437 6.94336 23.2036C8.81229 24.4023 11.0352 25.1032 13.4233 25.1032Z" fill="white"/>
</svg>
