<svg width="28" height="28" viewBox="0 0 28 28" fill="none" xmlns="http://www.w3.org/2000/svg">
<path d="M13.7571 27.359C21.3121 27.359 27.4367 21.2345 27.4367 13.6795C27.4367 6.12453 21.3121 0 13.7571 0C6.20216 0 0.0776367 6.12453 0.0776367 13.6795C0.0776367 21.2345 6.20216 27.359 13.7571 27.359Z" fill="white"/>
<path d="M10.9928 21.5583C17.6744 21.5583 21.3284 16.0236 21.3284 11.2226C21.3284 11.0645 21.3243 10.9085 21.3183 10.7525C22.0276 10.2397 22.6436 9.59932 23.13 8.87177C22.4795 9.16158 21.7783 9.35613 21.0447 9.44327C21.7945 8.99337 22.3701 8.28203 22.6416 7.43492C21.9404 7.85037 21.1622 8.15436 20.3354 8.31649C19.6727 7.61123 18.7283 7.16943 17.6846 7.16943C15.6782 7.16943 14.0509 8.79679 14.0509 10.8011C14.0509 11.0868 14.0833 11.3625 14.1461 11.63C11.1265 11.478 8.44939 10.033 6.65991 7.83416C6.34781 8.3712 6.16745 8.99539 6.16745 9.66012C6.16745 10.9207 6.80785 12.0333 7.78466 12.6838C7.18885 12.6656 6.62951 12.5014 6.13907 12.2298C6.13907 12.244 6.13907 12.2602 6.13907 12.2765C6.13907 14.0355 7.39151 15.5048 9.05331 15.8372C8.7473 15.9203 8.42709 15.9649 8.09676 15.9649C7.8637 15.9649 7.63469 15.9426 7.41379 15.9C7.87586 17.3429 9.21746 18.3927 10.8063 18.4231C9.56198 19.3979 7.99746 19.9775 6.29512 19.9775C6.00127 19.9775 5.71348 19.9613 5.42773 19.9268C7.0328 20.9564 8.94185 21.5583 10.9928 21.5583Z" fill="#213458"/>
</svg>
