<svg width="22" height="22" viewBox="0 0 22 22" fill="none" xmlns="http://www.w3.org/2000/svg">
<path d="M21.5729 19.3517C21.5729 19.9839 21.5729 20.6161 21.5729 21.2498C21.4851 21.3871 21.3742 21.5012 21.2356 21.5875C14.2711 21.5875 7.3081 21.5875 0.343561 21.5875C0.0771158 21.4364 -0.0137529 21.2097 0.00164859 20.906C0.0216705 20.4789 0.0031877 20.0487 0.00780813 19.62C0.0201293 18.6101 0.75786 17.7821 1.75587 17.6803C1.95609 17.6603 1.97149 17.5863 1.97149 17.4244C1.96687 15.9272 1.96841 14.4315 1.96841 12.9343C1.96841 11.6422 1.96379 10.3485 1.97303 9.05642C1.97457 8.86676 1.92067 8.81742 1.73739 8.82359C1.34465 8.83747 0.951917 8.83284 0.55918 8.82667C0.184925 8.82051 0.00934828 8.63702 0.00780813 8.26079C0.00626799 7.67024 0.0155082 7.07969 0.00472719 6.49068C0.000106752 6.21314 0.109459 6.03582 0.348181 5.89396C3.47313 4.04213 6.59501 2.18567 9.71534 0.324588C10.4346 -0.104062 11.1384 -0.11023 11.8592 0.318421C14.9672 2.17025 18.0783 4.019 21.191 5.86467C21.3511 5.96027 21.4867 6.07128 21.5745 6.23627C21.5745 6.98101 21.5745 7.72575 21.5745 8.47204C21.4451 8.74804 21.2248 8.84364 20.9276 8.8313C20.5564 8.81742 20.1837 8.83438 19.8125 8.82513C19.6554 8.82051 19.6092 8.86831 19.6108 9.02712C19.6185 9.76416 19.6138 10.5027 19.6138 11.2413C19.6138 13.3075 19.6154 15.3736 19.6108 17.4398C19.6108 17.6001 19.6339 17.6649 19.8187 17.6803C20.2807 17.7173 20.6766 17.9193 21.0077 18.2493C21.3142 18.5546 21.4713 18.9385 21.5729 19.3517ZM10.7657 7.84602C13.9384 7.84602 17.1111 7.84602 20.2838 7.84602C20.3393 7.84602 20.3962 7.84139 20.4517 7.84602C20.561 7.85681 20.5995 7.81056 20.5965 7.70108C20.5903 7.40658 20.5888 7.11053 20.598 6.81603C20.6026 6.69113 20.5518 6.62945 20.4502 6.56932C17.4114 4.76374 14.3727 2.95817 11.3356 1.14797C10.9598 0.924391 10.6009 0.932101 10.2267 1.15722C8.96991 1.91121 7.70853 2.6575 6.44869 3.40686C4.68215 4.4569 2.91714 5.51003 1.14906 6.55544C1.02276 6.631 0.973478 6.70963 0.979639 6.85303C0.99042 7.09203 0.98118 7.33102 0.98272 7.57002C0.98426 7.8784 0.948836 7.84294 1.24916 7.84448C4.42186 7.84602 7.59456 7.84602 10.7657 7.84602ZM10.7873 20.6099C13.9523 20.6099 17.1173 20.6099 20.2823 20.6099C20.3377 20.6099 20.3947 20.6053 20.4502 20.6099C20.558 20.6192 20.5995 20.576 20.5965 20.465C20.5903 20.2337 20.5949 20.0009 20.5949 19.7696C20.5934 19.0279 20.2068 18.6409 19.4645 18.6409C16.2918 18.6409 13.1206 18.6409 9.9479 18.6409C7.30964 18.6409 4.67137 18.6394 2.03156 18.6409C1.40318 18.6409 0.988881 19.0542 0.981181 19.6802C0.9781 19.8976 0.981181 20.1165 0.981181 20.3339C0.981181 20.6084 0.98118 20.6084 1.24763 20.6084C4.42956 20.6099 7.60842 20.6099 10.7873 20.6099ZM8.82668 13.2597C8.82668 11.8534 8.82514 10.4488 8.82976 9.04254C8.82976 8.88218 8.7928 8.82359 8.6203 8.82513C7.77784 8.83284 6.93538 8.8313 6.09292 8.82667C5.94353 8.82513 5.88654 8.85597 5.88654 9.0225C5.89116 11.8411 5.89116 14.6597 5.88654 17.4768C5.88654 17.6464 5.94968 17.668 6.09446 17.668C6.92922 17.6618 7.76552 17.6587 8.60028 17.6695C8.79279 17.6726 8.8313 17.614 8.82976 17.4336C8.8236 16.0428 8.82668 14.6505 8.82668 13.2597ZM12.751 13.2381C12.751 14.6443 12.754 16.049 12.7479 17.4552C12.7479 17.6156 12.7848 17.6711 12.9558 17.6695C13.7983 17.6603 14.6407 17.6603 15.4832 17.6695C15.6541 17.6711 15.6911 17.6171 15.6911 17.4567C15.6865 14.652 15.6865 11.8488 15.6926 9.04408C15.6926 8.8606 15.6326 8.82513 15.4647 8.82667C14.6361 8.83438 13.8075 8.83593 12.9789 8.82513C12.7864 8.82205 12.7479 8.88527 12.7479 9.06413C12.754 10.4549 12.751 11.8457 12.751 13.2381ZM2.94949 13.2597C2.94949 14.6643 2.95103 16.069 2.9464 17.4737C2.9464 17.6109 2.96797 17.6711 3.1266 17.6695C3.65949 17.6603 4.19238 17.6618 4.72527 17.668C4.85772 17.6695 4.90701 17.6371 4.90701 17.4937C4.90239 14.6643 4.90239 11.8334 4.90701 9.00399C4.90701 8.8606 4.85772 8.82513 4.72527 8.82667C4.20624 8.83284 3.68721 8.83593 3.16819 8.82513C2.99261 8.82051 2.94486 8.87139 2.9464 9.04717C2.95256 10.4503 2.94949 11.855 2.94949 13.2597ZM9.81237 13.2597C9.81237 14.6643 9.81391 16.069 9.80929 17.4737C9.80929 17.6109 9.83239 17.6711 9.98949 17.6695C10.5224 17.6603 11.0553 17.6618 11.5882 17.668C11.7221 17.6695 11.7684 17.6356 11.7684 17.4937C11.7637 14.6643 11.7637 11.8334 11.7684 9.00399C11.7684 8.86214 11.7206 8.82513 11.5882 8.82667C11.0691 8.83284 10.5501 8.83593 10.0311 8.82513C9.85704 8.82205 9.80775 8.86985 9.80775 9.04717C9.81545 10.4503 9.81237 11.855 9.81237 13.2597ZM18.6282 13.2612C18.6282 11.8504 18.6251 10.438 18.6312 9.02712C18.6312 8.87139 18.5927 8.82205 18.4326 8.82513C17.9074 8.83438 17.3806 8.8313 16.8539 8.82667C16.7245 8.82513 16.6691 8.85289 16.6691 9.00091C16.6737 11.8303 16.6737 14.6613 16.6691 17.4907C16.6691 17.6294 16.7107 17.6695 16.8477 17.6664C17.3745 17.6587 17.8997 17.6556 18.4264 17.668C18.602 17.6726 18.6312 17.6109 18.6297 17.4537C18.6266 16.0567 18.6282 14.6597 18.6282 13.2612Z" fill="#696969"/>
</svg>
