<svg width="16" height="20" viewBox="0 0 16 20" fill="none" xmlns="http://www.w3.org/2000/svg">
<mask id="path-1-inside-1_169_4" fill="white">
<path fill-rule="evenodd" clip-rule="evenodd" d="M6.30037 0.18939C5.10957 0.557806 3.58015 2.21214 3.23628 3.50362C2.63801 5.75001 3.52692 8.11111 5.41871 9.30025C6.83617 10.1912 9.27675 10.1548 10.671 9.22192C12.2309 8.17807 12.8701 6.94294 12.8701 4.97249C12.8701 3.02731 12.2321 1.76767 10.7422 0.770821C9.67035 0.0534444 7.61063 -0.216172 6.30037 0.18939ZM9.6861 1.93899C10.1342 2.21518 10.724 2.81152 10.9971 3.26458C12.7782 6.21823 9.22902 9.80689 6.30787 8.00599C5.85979 7.7298 5.27001 7.13346 4.99687 6.6804C3.21579 3.72675 6.76495 0.138094 9.6861 1.93899ZM0.613519 12.6681C0.140697 13.1459 0 13.5537 0 14.4449C0 16.0369 0.496063 17.0954 1.75209 18.1822C3.33124 19.5492 4.88016 20 7.99698 20C11.0256 20 12.5997 19.5659 14.0974 18.3176C15.9435 16.7788 16.5977 13.8986 15.3804 12.6681L14.7672 12.0477H7.99698H1.22679L0.613519 12.6681ZM14.4376 14.5746C14.5415 15.9247 13.7351 17.0168 12.0515 17.8062C10.7949 18.3952 10.3016 18.4776 7.99698 18.4839C5.66386 18.4905 5.21428 18.4162 3.94251 17.8133C3.00187 17.3675 2.33912 16.8485 2.00674 16.2971C1.51318 15.4787 1.329 14.073 1.67012 13.7281C1.76408 13.6331 4.65999 13.5856 8.10519 13.6227L14.3696 13.6902L14.4376 14.5746Z"/>
</mask>
<path fill-rule="evenodd" clip-rule="evenodd" d="M6.30037 0.18939C5.10957 0.557806 3.58015 2.21214 3.23628 3.50362C2.63801 5.75001 3.52692 8.11111 5.41871 9.30025C6.83617 10.1912 9.27675 10.1548 10.671 9.22192C12.2309 8.17807 12.8701 6.94294 12.8701 4.97249C12.8701 3.02731 12.2321 1.76767 10.7422 0.770821C9.67035 0.0534444 7.61063 -0.216172 6.30037 0.18939ZM9.6861 1.93899C10.1342 2.21518 10.724 2.81152 10.9971 3.26458C12.7782 6.21823 9.22902 9.80689 6.30787 8.00599C5.85979 7.7298 5.27001 7.13346 4.99687 6.6804C3.21579 3.72675 6.76495 0.138094 9.6861 1.93899ZM0.613519 12.6681C0.140697 13.1459 0 13.5537 0 14.4449C0 16.0369 0.496063 17.0954 1.75209 18.1822C3.33124 19.5492 4.88016 20 7.99698 20C11.0256 20 12.5997 19.5659 14.0974 18.3176C15.9435 16.7788 16.5977 13.8986 15.3804 12.6681L14.7672 12.0477H7.99698H1.22679L0.613519 12.6681ZM14.4376 14.5746C14.5415 15.9247 13.7351 17.0168 12.0515 17.8062C10.7949 18.3952 10.3016 18.4776 7.99698 18.4839C5.66386 18.4905 5.21428 18.4162 3.94251 17.8133C3.00187 17.3675 2.33912 16.8485 2.00674 16.2971C1.51318 15.4787 1.329 14.073 1.67012 13.7281C1.76408 13.6331 4.65999 13.5856 8.10519 13.6227L14.3696 13.6902L14.4376 14.5746Z" fill="#1FA187"/>
<path d="M6.30037 0.18939L7.77819 4.96601L7.77881 4.96581L6.30037 0.18939ZM3.23628 3.50362L8.06786 4.79041L8.06794 4.79011L3.23628 3.50362ZM5.41871 9.30025L2.75782 13.5334L2.75786 13.5334L5.41871 9.30025ZM10.671 9.22192L13.4516 13.3774L13.4517 13.3774L10.671 9.22192ZM10.7422 0.770821L7.96115 4.92603L7.96184 4.92649L10.7422 0.770821ZM9.6861 1.93899L7.06216 6.19516L7.06255 6.1954L9.6861 1.93899ZM10.9971 3.26458L6.7151 5.84614L6.71533 5.84653L10.9971 3.26458ZM6.30787 8.00599L8.93181 3.74982L8.93142 3.74958L6.30787 8.00599ZM4.99687 6.6804L9.27887 4.09884L9.27864 4.09845L4.99687 6.6804ZM0.613519 12.6681L4.16763 16.1849L4.16928 16.1832L0.613519 12.6681ZM1.75209 18.1822L5.0246 14.4019L5.02373 14.4011L1.75209 18.1822ZM14.0974 18.3176L17.2987 22.1585L17.2989 22.1582L14.0974 18.3176ZM15.3804 12.6681L11.8247 16.1832L11.8258 16.1843L15.3804 12.6681ZM14.7672 12.0477L18.3229 8.53252L16.8551 7.04771H14.7672V12.0477ZM1.22679 12.0477V7.04771H-0.861102L-2.32897 8.53251L1.22679 12.0477ZM14.4376 14.5746L9.45226 14.9577L9.45231 14.9584L14.4376 14.5746ZM12.0515 17.8062L14.1737 22.3335L14.1741 22.3333L12.0515 17.8062ZM7.99698 18.4839L7.98328 13.4839L7.98291 13.4839L7.99698 18.4839ZM3.94251 17.8133L6.08437 13.2952L6.08361 13.2949L3.94251 17.8133ZM2.00674 16.2971L6.28886 13.7158L6.28844 13.7151L2.00674 16.2971ZM8.10519 13.6227L8.05129 18.6224L8.05135 18.6224L8.10519 13.6227ZM14.3696 13.6902L19.3549 13.307L19.0038 8.73979L14.4234 8.69046L14.3696 13.6902ZM4.82256 -4.58723C3.03353 -4.03373 1.63537 -2.81982 0.779342 -1.89389C-0.104268 -0.938135 -1.13801 0.499386 -1.59538 2.21714L8.06794 4.79011C8.02813 4.93963 7.98755 5.03519 7.96981 5.07422C7.95101 5.11558 7.94278 5.12654 7.95318 5.10961C7.97759 5.06986 8.0354 4.9884 8.12211 4.89461C8.16228 4.85116 8.20019 4.81427 8.23236 4.78549C8.24806 4.77144 8.26088 4.76067 8.27033 4.75305C8.27984 4.74538 8.28459 4.74198 8.28412 4.74232C8.28373 4.7426 8.27617 4.74803 8.26101 4.75753C8.24599 4.76695 8.22057 4.78221 8.1845 4.80135C8.11835 4.83645 7.98185 4.903 7.77819 4.96601L4.82256 -4.58723ZM-1.5953 2.21684C-2.72595 6.46216 -1.08988 11.1148 2.75782 13.5334L8.07959 5.06708C8.10872 5.08539 8.09363 5.09129 8.07306 5.03665C8.05194 4.98056 8.04021 4.89423 8.06786 4.79041L-1.5953 2.21684ZM2.75786 13.5334C4.49956 14.6282 6.48872 14.9689 8.12811 14.9445C9.76831 14.92 11.7442 14.5199 13.4516 13.3774L7.89039 5.0664C7.98824 5.00092 8.06306 4.96459 8.10371 4.94685C8.14485 4.9289 8.16411 4.92426 8.15825 4.92584C8.15289 4.92729 8.13243 4.93232 8.09787 4.937C8.06358 4.94166 8.02303 4.94494 7.979 4.9456C7.93497 4.94625 7.89451 4.94418 7.86042 4.94058C7.82606 4.93696 7.80598 4.93262 7.80126 4.93149C7.79603 4.93024 7.81633 4.93457 7.85905 4.95175C7.90126 4.96872 7.97843 5.0035 8.07955 5.06706L2.75786 13.5334ZM13.4517 13.3774C14.7415 12.5142 15.96 11.3583 16.7961 9.74281C17.6225 8.1459 17.8701 6.49535 17.8701 4.97249H7.87015C7.87015 5.19918 7.85135 5.29937 7.84874 5.31203C7.84776 5.31677 7.85086 5.3005 7.86201 5.26835C7.87337 5.23563 7.8906 5.19364 7.91497 5.14655C7.9394 5.09934 7.96635 5.05601 7.99319 5.01869C8.01977 4.98174 8.04105 4.95788 8.05132 4.9471C8.07072 4.92672 8.03484 4.96973 7.89028 5.06647L13.4517 13.3774ZM17.8701 4.97249C17.8701 3.45758 17.6212 1.82822 16.8254 0.256926C16.0154 -1.34246 14.8261 -2.51269 13.5226 -3.38485L7.96184 4.92649C8.06743 4.99714 8.08023 5.02049 8.04744 4.98534C8.03105 4.96778 8.00698 4.93954 7.97977 4.90084C7.95241 4.86192 7.92671 4.81927 7.90436 4.77514C7.88209 4.73118 7.86704 4.69343 7.85761 4.6658C7.84835 4.63865 7.84644 4.62694 7.84813 4.63522C7.85204 4.65439 7.87015 4.75579 7.87015 4.97249H17.8701ZM13.5232 -3.38439C12.1293 -4.31733 10.5229 -4.73335 9.25965 -4.8987C7.97252 -5.06719 6.36327 -5.06412 4.82193 -4.58703L7.77881 4.96581C7.69449 4.99191 7.64257 5.00098 7.62991 5.00304C7.616 5.00532 7.62477 5.00315 7.65677 5.00148C7.68809 4.99985 7.73245 4.99918 7.78774 5.00152C7.84277 5.00384 7.90176 5.00886 7.96173 5.01671C8.02177 5.02457 8.07656 5.03445 8.12351 5.04492C8.17088 5.05548 8.20263 5.06492 8.21803 5.06998C8.23434 5.07535 8.22221 5.07246 8.1855 5.05536C8.15038 5.03899 8.07075 4.99938 7.96115 4.92603L13.5232 -3.38439ZM7.06255 6.1954C6.92426 6.11016 6.85245 6.04984 6.84653 6.04492C6.83298 6.03366 6.83758 6.03663 6.85216 6.05138C6.86671 6.06609 6.87002 6.07112 6.85958 6.05826C6.85522 6.0529 6.79723 5.98236 6.7151 5.84614L15.2791 0.683026C14.5967 -0.448897 13.4397 -1.62088 12.3096 -2.31742L7.06255 6.1954ZM6.71533 5.84653C6.5134 5.51166 6.42825 5.05689 6.50292 4.63444C6.56724 4.27055 6.72612 4.03848 6.86078 3.90232C6.99482 3.76679 7.239 3.59137 7.63422 3.51995C8.09322 3.437 8.58038 3.53317 8.93181 3.74982L3.68393 12.2622C7.54078 14.6399 11.6744 13.2561 13.9709 10.9342C16.2631 8.61642 17.5877 4.51146 15.2789 0.682636L6.71533 5.84653ZM8.93142 3.74958C9.06971 3.83482 9.14152 3.89514 9.14744 3.90006C9.16099 3.91132 9.15639 3.90835 9.14181 3.8936C9.12726 3.87889 9.12395 3.87386 9.13439 3.88672C9.13875 3.89208 9.19674 3.96262 9.27887 4.09884L0.71486 9.26195C1.39728 10.3939 2.55427 11.5659 3.68433 12.2624L8.93142 3.74958ZM9.27864 4.09845C9.48057 4.43332 9.56572 4.88809 9.49105 5.31054C9.42673 5.67443 9.26785 5.9065 9.13319 6.04266C8.99915 6.17819 8.75497 6.35361 8.35975 6.42503C7.90075 6.50798 7.41359 6.41181 7.06216 6.19516L12.31 -2.31718C8.45319 -4.69493 4.31953 -3.31115 2.02311 -0.989182C-0.269132 1.32856 -1.59372 5.43351 0.715096 9.26234L9.27864 4.09845ZM-2.94059 9.15119C-3.53732 9.75424 -4.19095 10.5941 -4.59684 11.7699C-4.96059 12.8235 -5 13.8015 -5 14.4449H5C5 14.1972 5.03093 14.5256 4.85574 15.0331C4.75976 15.3111 4.62825 15.571 4.47665 15.7981C4.33451 16.011 4.20965 16.1424 4.16763 16.1849L-2.94059 9.15119ZM-5 14.4449C-5 15.778 -4.78841 17.2041 -4.1222 18.6253C-3.46223 20.0331 -2.5106 21.1057 -1.51955 21.9632L5.02373 14.4011C4.95657 14.343 4.91091 14.2993 4.88164 14.2695C4.85262 14.24 4.84121 14.2257 4.84191 14.2266C4.84294 14.2279 4.85486 14.2428 4.87273 14.2711C4.89086 14.2998 4.9117 14.3368 4.93227 14.3807C4.95289 14.4247 4.9697 14.468 4.9826 14.5081C4.9954 14.5479 5.00213 14.5775 5.0052 14.5932C5.0111 14.6236 5 14.5851 5 14.4449H-5ZM-1.52042 21.9625C-0.266248 23.0482 1.14056 23.8922 2.90051 24.4045C4.53881 24.8814 6.25049 25 7.99698 25V15C6.62665 15 6.00547 14.8932 5.69531 14.803C5.50681 14.7481 5.34958 14.6832 5.0246 14.4019L-1.52042 21.9625ZM7.99698 25C11.5807 25 14.5223 24.4724 17.2987 22.1585L10.8962 14.4768C10.6522 14.6802 10.5135 14.7458 10.292 14.8068C9.95858 14.8988 9.31973 15 7.99698 15V25ZM17.2989 22.1582C19.1251 20.6359 20.2963 18.5419 20.7635 16.4846C21.1874 14.6185 21.2587 11.5007 18.9351 9.15177L11.8258 16.1843C11.2648 15.6172 11.0808 15.02 11.0266 14.7078C10.999 14.5484 10.9983 14.4327 11.0011 14.3691C11.004 14.3044 11.0114 14.2718 11.0119 14.2698C11.0125 14.267 11.0093 14.2813 10.9985 14.3083C10.9877 14.3349 10.973 14.3652 10.9549 14.3954C10.9151 14.4622 10.8853 14.4858 10.8959 14.477L17.2989 22.1582ZM18.9362 9.15286L18.3229 8.53252L11.2114 15.5629L11.8247 16.1832L18.9362 9.15286ZM14.7672 7.04771H7.99698V17.0477H14.7672V7.04771ZM7.99698 7.04771H1.22679V17.0477H7.99698V7.04771ZM-2.32897 8.53251L-2.94224 9.15286L4.16928 16.1832L4.78254 15.5629L-2.32897 8.53251ZM9.45231 14.9584C9.43559 14.7413 9.45196 14.4637 9.53885 14.1605C9.62579 13.8572 9.75979 13.6104 9.89252 13.4306C10.1384 13.0977 10.2876 13.1109 9.92885 13.2791L14.1741 22.3333C15.499 21.7121 16.8932 20.7845 17.9372 19.3706C19.0515 17.8614 19.5667 16.0597 19.4228 14.1907L9.45231 14.9584ZM9.92924 13.2789C9.67526 13.398 9.58474 13.4318 9.55992 13.4405C9.55349 13.4427 9.56088 13.44 9.57639 13.436C9.59192 13.432 9.59955 13.4309 9.59303 13.4319C9.57287 13.4353 9.46968 13.4509 9.19789 13.4634C8.91951 13.4761 8.54445 13.4824 7.98328 13.4839L8.01069 23.4839C9.11619 23.4808 10.211 23.4674 11.2415 23.2951C12.4604 23.0914 13.3717 22.7094 14.1737 22.3335L9.92924 13.2789ZM7.98291 13.4839C7.41095 13.4855 7.03409 13.4816 6.75604 13.4706C6.48489 13.4598 6.39302 13.445 6.3876 13.4441C6.38724 13.4441 6.39153 13.4448 6.39953 13.4465C6.40762 13.4482 6.41733 13.4504 6.4279 13.4532C6.45104 13.4592 6.46423 13.4639 6.46129 13.4629C6.44045 13.4555 6.35137 13.4218 6.08437 13.2952L1.80065 22.3313C2.58928 22.7051 3.51221 23.1044 4.75588 23.3101C5.79711 23.4823 6.9073 23.487 8.01106 23.4839L7.98291 13.4839ZM6.08361 13.2949C5.8689 13.1931 5.80132 13.1363 5.82949 13.1584C5.847 13.1721 5.90354 13.2181 5.98216 13.3028C6.0607 13.3875 6.17273 13.5231 6.28886 13.7158L-2.27537 18.8785C-1.21032 20.6453 0.47115 21.7013 1.80141 22.3316L6.08361 13.2949ZM6.28844 13.7151C6.4791 14.0312 6.48153 14.1739 6.48305 14.1854C6.48674 14.2136 6.51428 14.4156 6.47432 14.7511C6.45386 14.923 6.4037 15.2334 6.26362 15.6174C6.13036 15.9828 5.84042 16.6219 5.22516 17.244L-1.88492 10.2122C-3.17301 11.5146 -3.39569 13.0663 -3.45552 13.5687C-3.54147 14.2904 -3.50099 14.9596 -3.4322 15.4846C-3.30048 16.4899 -2.95918 17.7446 -2.27496 18.8792L6.28844 13.7151ZM5.22516 17.244C4.71638 17.7584 4.21409 18.0405 3.97191 18.1657C3.69487 18.3088 3.45926 18.3971 3.31663 18.4463C3.03574 18.5431 2.81126 18.5912 2.72056 18.6097C2.52352 18.6499 2.38331 18.6643 2.37276 18.6654C2.32457 18.6707 2.3465 18.6669 2.48497 18.6598C2.73858 18.6469 3.15065 18.6344 3.71285 18.6252C4.82242 18.607 6.36073 18.6042 8.05129 18.6224L8.1591 8.62299C6.40445 8.60407 4.77221 8.60646 3.54904 8.6265C2.94486 8.6364 2.40001 8.65121 1.97655 8.67277C1.77648 8.68295 1.52984 8.69816 1.29183 8.72404C1.18638 8.7355 0.970958 8.76059 0.719489 8.81195C0.601572 8.83604 0.355082 8.88972 0.0575116 8.9923C-0.0319971 9.02316 -1.00893 9.32642 -1.88492 10.2122L5.22516 17.244ZM8.05135 18.6224L14.3157 18.6899L14.4234 8.69046L8.15904 8.62299L8.05135 18.6224ZM9.38429 14.0733L9.45226 14.9577L19.4229 14.1914L19.3549 13.307L9.38429 14.0733Z" fill="#1FA187" mask="url(#path-1-inside-1_169_4)"/>
</svg>
