<svg width="29" height="23" viewBox="0 0 29 23" fill="none" xmlns="http://www.w3.org/2000/svg">
<path d="M28.5664 1.56678C28.5664 0.774241 28.055 0.263869 27.2603 0.263869C20.3943 0.262327 13.5284 0.263869 6.66241 0.263869C6.53458 0.263869 6.40675 0.265411 6.28046 0.299333C5.77529 0.435021 5.50576 0.792744 5.35791 1.26765V4.75237H6.90575C6.90421 3.86268 6.90421 2.973 6.90267 2.08332C6.90267 1.86591 6.95196 1.80886 7.17374 1.80886C10.4435 1.81657 13.7147 1.81349 16.9845 1.81349C20.2403 1.81349 23.4947 1.81657 26.7505 1.80732C26.9723 1.80732 27.0216 1.86591 27.0216 2.08178C27.0139 5.77157 27.0139 9.46135 27.0216 13.1511C27.0216 13.367 26.9723 13.4271 26.7505 13.4271C22.3488 13.4225 17.9471 13.4241 13.5453 13.4256V14.9706C13.8287 14.9706 14.1106 14.9706 14.3939 14.9691C14.4525 14.9691 14.4956 14.9721 14.5279 14.986H19.4379C19.4887 14.9737 19.5657 14.9721 19.6813 14.9721C22.204 14.9721 24.7268 14.9721 27.2495 14.9721C28.055 14.9721 28.5664 14.4618 28.5664 13.6569C28.5679 9.62788 28.5679 5.59733 28.5664 1.56678Z" fill="#696969"/>
<path d="M2.51315 22.0433C2.32833 22.0048 2.14043 21.977 1.9587 21.9262C0.795888 21.5977 0.0612361 20.7003 0.0104113 19.4792C-0.0419536 18.2163 0.0966662 16.9736 0.575651 15.7909C0.88522 15.0277 1.33494 14.3677 2.08653 13.9653C2.55166 13.717 3.04911 13.6091 3.57122 13.6014C3.75142 13.5983 3.9116 13.6785 4.061 13.7726C4.2951 13.919 4.52458 14.0717 4.75868 14.2166C6.12325 15.06 7.48782 15.06 8.85238 14.2135C9.04182 14.0964 9.23434 13.9823 9.413 13.8497C9.73951 13.6045 10.0984 13.5737 10.4865 13.6307C11.5446 13.7864 12.2915 14.3662 12.7951 15.2929C13.2449 16.1193 13.4359 17.0183 13.5421 17.9419C13.596 18.4183 13.613 18.8948 13.6037 19.3743C13.576 20.799 12.6057 21.8599 11.1903 22.0156C11.1549 22.0202 11.1149 22.0141 11.0871 22.0464C8.22709 22.0433 5.37011 22.0433 2.51315 22.0433Z" fill="#696969"/>
<path d="M10.6301 9.63855C10.6439 11.7911 8.8697 13.5766 6.70888 13.5827C4.54806 13.5889 2.76765 11.8049 2.76611 9.65859C2.76457 7.48758 4.49878 5.72672 6.67962 5.7113C8.8543 5.69434 10.6162 7.44749 10.6301 9.63855Z" fill="#696969"/>
</svg>
